# xmcd
#
# Track frame offsets:
#	150
#	21135
#	35505
#	49465
#	66795
#	87257
#	104022
#	120702
#	135715
#	153022
#	172270
#	183859
#	193540
#	210697
#
# Disc length: 3095 seconds
#
# Revision: 1
# Processed by: cddbd v1.5.2PL0 Copyright (c) Steve Scherf et al.
# Submitted via: audiograbber 1.83.01
#
DISCID=c60c150e
DTITLE=Various Artist - The Best Of Country Rock - Disc 1
DYEAR=1996
DGENRE=Country
TTITLE0=Alannah Miles - Black Velvet
TTITLE1=Bellamy Brothers - If I Said You Had A Beautiful Body
TTITLE2=John Denver - Thank God I'm A Country Boy
TTITLE3=Mavericks - What A Crying Shame
TTITLE4=Alabama - The Closer You Get
TTITLE5=Oakridge Boys - Elvira
TTITLE6=Don Williams - Fever
TTITLE7=Willie Nelson - Nothing I Can Do About It Now
TTITLE8=Dolly Parton - Real Love
TTITLE9=Ronnie Milsap - Lost In The 50's Tonight
TTITLE10=Patsy Cline - Walking After Midnight
TTITLE11=Johnny Cash - Ballad Of A Teenage Queen
TTITLE12=Jim Croce - Operator
TTITLE13=Lynyrd Skynyrd - Sweet Home Alabama
EXTD=
EXTT0=
EXTT1=
EXTT2=
EXTT3=
EXTT4=
EXTT5=
EXTT6=
EXTT7=
EXTT8=
EXTT9=
EXTT10=
EXTT11=
EXTT12=
EXTT13=
PLAYORDER=
